<svg xmlns="http://www.w3.org/2000/svg" viewBox="0 0 256 256"><defs><style>.cls-1{font-size:36.36px;font-family:PMNCaeciliaSansText-Hv, PMNCaeciliaSans Text;}.cls-2{letter-spacing:-0.01em;}.cls-3{fill:#5e17eb;}</style></defs><g id="TEXTS"><text class="cls-1" transform="translate(78.47 140.2)">P<tspan class="cls-2" x="21.09" y="0">r</tspan><tspan x="34.94" y="0">oChains</tspan></text><path class="cls-3" d="M43.65,121.55l-4.84,4.5a9.57,9.57,0,0,1,.39,13.42h0a9.58,9.58,0,0,1-13.53.5L13.28,128.46a9.57,9.57,0,0,1-.5-13.52h0a9.58,9.58,0,0,1,13.53-.51l6.31,5.87,4.89-4.89-5.77-5.77a16.48,16.48,0,0,0-23.3,0h0a16.48,16.48,0,0,0,0,23.31l11.8,11.81a16.48,16.48,0,0,0,23.31,0h0A16.48,16.48,0,0,0,43.65,121.55Z"/><path class="cls-3" d="M67.86,109.64h0a16.5,16.5,0,0,0-23.31,0l-11.8,11.81a16.37,16.37,0,0,0-2.46,20.17c.25,0,4.44.71,7.26-1.7q-.24-.22-.45-.45h0a9.57,9.57,0,0,1,.5-13.53L50,114.43a9.58,9.58,0,0,1,13.53.51h0a9.55,9.55,0,0,1-.5,13.52L50.62,140a9.52,9.52,0,0,1-3.93,2.2l-.17.05a15.49,15.49,0,0,1-7.44,6.49,16.51,16.51,0,0,0,17-4L67.86,133A16.48,16.48,0,0,0,67.86,109.64Z"/></g></svg>